<mxfile host="app.diagrams.net" modified="2023-04-05T04:46:14.204Z" agent="Mozilla/5.0 (X11; Linux x86_64) AppleWebKit/537.36 (KHTML, like Gecko) Chrome/110.0.0.0 Safari/537.36" etag="rcwPi9qBBH9fof7zey6T" version="21.1.4" type="github">
  <diagram name="第 1 页" id="FvOjQQNea8EOxkawRLZ-">
    <mxGraphModel dx="2074" dy="1263" grid="1" gridSize="10" guides="1" tooltips="1" connect="1" arrows="1" fold="1" page="1" pageScale="1" pageWidth="3300" pageHeight="4681" math="0" shadow="0">
      <root>
        <mxCell id="0" />
        <mxCell id="1" parent="0" />
        <mxCell id="tDl_KvokEJC_1A1ImUrF-23" value="" style="edgeStyle=orthogonalEdgeStyle;rounded=0;orthogonalLoop=1;jettySize=auto;html=1;" parent="1" source="tDl_KvokEJC_1A1ImUrF-3" edge="1">
          <mxGeometry relative="1" as="geometry">
            <mxPoint x="754.9999999999998" y="950" as="targetPoint" />
          </mxGeometry>
        </mxCell>
        <mxCell id="tDl_KvokEJC_1A1ImUrF-3" value="&lt;font style=&quot;font-size: 24px;&quot;&gt;发送方&lt;br&gt;等待数据发送状态&lt;/font&gt;" style="ellipse;whiteSpace=wrap;html=1;" parent="1" vertex="1">
          <mxGeometry x="650" y="690" width="210" height="140" as="geometry" />
        </mxCell>
        <mxCell id="tDl_KvokEJC_1A1ImUrF-4" value="&lt;font style=&quot;font-size: 24px;&quot;&gt;接收方&lt;br&gt;等待数据接收状态&lt;/font&gt;" style="ellipse;whiteSpace=wrap;html=1;" parent="1" vertex="1">
          <mxGeometry x="1100" y="690" width="210" height="140" as="geometry" />
        </mxCell>
        <mxCell id="tDl_KvokEJC_1A1ImUrF-5" value="&lt;font style=&quot;font-size: 24px;&quot;&gt;发送方&lt;br&gt;等待确认状态&lt;/font&gt;" style="ellipse;whiteSpace=wrap;html=1;" parent="1" vertex="1">
          <mxGeometry x="650" y="950" width="210" height="140" as="geometry" />
        </mxCell>
        <mxCell id="tDl_KvokEJC_1A1ImUrF-6" value="&lt;font style=&quot;font-size: 24px;&quot;&gt;接收方&lt;br&gt;发送确认状态&lt;/font&gt;" style="ellipse;whiteSpace=wrap;html=1;" parent="1" vertex="1">
          <mxGeometry x="1110" y="950" width="210" height="140" as="geometry" />
        </mxCell>
        <mxCell id="tDl_KvokEJC_1A1ImUrF-21" value="&lt;font style=&quot;font-size: 24px;&quot;&gt;Date&lt;/font&gt;" style="text;html=1;align=center;verticalAlign=middle;resizable=0;points=[];autosize=1;strokeColor=none;fillColor=none;" parent="1" vertex="1">
          <mxGeometry x="865" y="710" width="70" height="40" as="geometry" />
        </mxCell>
        <mxCell id="tDl_KvokEJC_1A1ImUrF-24" value="" style="endArrow=classic;html=1;rounded=0;entryX=0;entryY=0.5;entryDx=0;entryDy=0;" parent="1" target="tDl_KvokEJC_1A1ImUrF-4" edge="1">
          <mxGeometry width="50" height="50" relative="1" as="geometry">
            <mxPoint x="860" y="760" as="sourcePoint" />
            <mxPoint x="910" y="710" as="targetPoint" />
          </mxGeometry>
        </mxCell>
        <mxCell id="tDl_KvokEJC_1A1ImUrF-25" value="" style="endArrow=classic;html=1;rounded=0;entryX=0.5;entryY=0;entryDx=0;entryDy=0;" parent="1" target="tDl_KvokEJC_1A1ImUrF-6" edge="1">
          <mxGeometry width="50" height="50" relative="1" as="geometry">
            <mxPoint x="1210" y="830" as="sourcePoint" />
            <mxPoint x="1260" y="780" as="targetPoint" />
          </mxGeometry>
        </mxCell>
        <mxCell id="tDl_KvokEJC_1A1ImUrF-27" value="&lt;font style=&quot;font-size: 24px;&quot;&gt;发送ACK&lt;/font&gt;" style="text;html=1;align=center;verticalAlign=middle;resizable=0;points=[];autosize=1;strokeColor=none;fillColor=none;" parent="1" vertex="1">
          <mxGeometry x="930" y="970" width="120" height="40" as="geometry" />
        </mxCell>
        <mxCell id="tDl_KvokEJC_1A1ImUrF-28" value="" style="endArrow=classic;html=1;rounded=0;entryX=1;entryY=0.5;entryDx=0;entryDy=0;" parent="1" target="tDl_KvokEJC_1A1ImUrF-5" edge="1">
          <mxGeometry width="50" height="50" relative="1" as="geometry">
            <mxPoint x="1110" y="1020" as="sourcePoint" />
            <mxPoint x="1160" y="970" as="targetPoint" />
          </mxGeometry>
        </mxCell>
        <mxCell id="tDl_KvokEJC_1A1ImUrF-31" value="" style="endArrow=classic;html=1;rounded=0;entryX=1;entryY=1;entryDx=0;entryDy=0;exitX=1;exitY=0;exitDx=0;exitDy=0;" parent="1" source="tDl_KvokEJC_1A1ImUrF-5" target="tDl_KvokEJC_1A1ImUrF-3" edge="1">
          <mxGeometry width="50" height="50" relative="1" as="geometry">
            <mxPoint x="660" y="990" as="sourcePoint" />
            <mxPoint x="710" y="940" as="targetPoint" />
          </mxGeometry>
        </mxCell>
        <mxCell id="tDl_KvokEJC_1A1ImUrF-32" value="&lt;font style=&quot;font-size: 24px;&quot;&gt;接收到ACK&lt;/font&gt;" style="text;html=1;align=center;verticalAlign=middle;resizable=0;points=[];autosize=1;strokeColor=none;fillColor=none;" parent="1" vertex="1">
          <mxGeometry x="830" y="870" width="140" height="40" as="geometry" />
        </mxCell>
        <mxCell id="tDl_KvokEJC_1A1ImUrF-33" value="&lt;font style=&quot;font-size: 24px;&quot;&gt;发送方&lt;br&gt;等待确认状态&lt;/font&gt;" style="ellipse;whiteSpace=wrap;html=1;" parent="1" vertex="1">
          <mxGeometry x="665" y="450" width="180" height="120" as="geometry" />
        </mxCell>
        <mxCell id="tDl_KvokEJC_1A1ImUrF-41" value="" style="endArrow=classic;html=1;rounded=0;entryX=1;entryY=1;entryDx=0;entryDy=0;" parent="1" target="tDl_KvokEJC_1A1ImUrF-33" edge="1">
          <mxGeometry width="50" height="50" relative="1" as="geometry">
            <mxPoint x="1130" y="710" as="sourcePoint" />
            <mxPoint x="1180" y="660" as="targetPoint" />
          </mxGeometry>
        </mxCell>
        <mxCell id="tDl_KvokEJC_1A1ImUrF-42" value="&lt;font style=&quot;font-size: 24px;&quot;&gt;NAK&lt;/font&gt;" style="text;html=1;align=center;verticalAlign=middle;resizable=0;points=[];autosize=1;strokeColor=none;fillColor=none;" parent="1" vertex="1">
          <mxGeometry x="935" y="580" width="70" height="40" as="geometry" />
        </mxCell>
        <mxCell id="tDl_KvokEJC_1A1ImUrF-43" value="" style="endArrow=classic;html=1;rounded=0;entryX=0.5;entryY=0;entryDx=0;entryDy=0;" parent="1" target="tDl_KvokEJC_1A1ImUrF-3" edge="1">
          <mxGeometry width="50" height="50" relative="1" as="geometry">
            <mxPoint x="750" y="570" as="sourcePoint" />
            <mxPoint x="800" y="520" as="targetPoint" />
          </mxGeometry>
        </mxCell>
        <mxCell id="tDl_KvokEJC_1A1ImUrF-44" value="&lt;font style=&quot;font-size: 24px;&quot;&gt;超时重传或NAK重传&lt;/font&gt;" style="text;html=1;align=center;verticalAlign=middle;resizable=0;points=[];autosize=1;strokeColor=none;fillColor=none;" parent="1" vertex="1">
          <mxGeometry x="640" y="610" width="240" height="40" as="geometry" />
        </mxCell>
        <mxCell id="tDl_KvokEJC_1A1ImUrF-45" value="" style="endArrow=classic;html=1;rounded=0;entryX=1;entryY=1;entryDx=0;entryDy=0;" parent="1" target="tDl_KvokEJC_1A1ImUrF-4" edge="1">
          <mxGeometry width="50" height="50" relative="1" as="geometry">
            <mxPoint x="1290" y="970" as="sourcePoint" />
            <mxPoint x="1340" y="920" as="targetPoint" />
          </mxGeometry>
        </mxCell>
        <mxCell id="tDl_KvokEJC_1A1ImUrF-47" value="" style="shape=flexArrow;endArrow=classic;html=1;rounded=0;" parent="1" edge="1">
          <mxGeometry width="50" height="50" relative="1" as="geometry">
            <mxPoint x="550" y="760" as="sourcePoint" />
            <mxPoint x="650" y="760" as="targetPoint" />
          </mxGeometry>
        </mxCell>
        <mxCell id="tDl_KvokEJC_1A1ImUrF-48" value="&lt;font style=&quot;font-size: 24px;&quot;&gt;Date&lt;/font&gt;" style="text;html=1;align=center;verticalAlign=middle;resizable=0;points=[];autosize=1;strokeColor=none;fillColor=none;" parent="1" vertex="1">
          <mxGeometry x="525" y="710" width="70" height="40" as="geometry" />
        </mxCell>
        <mxCell id="efm35DuK7ggwksIkIi30-4" style="edgeStyle=orthogonalEdgeStyle;rounded=0;orthogonalLoop=1;jettySize=auto;html=1;exitX=1;exitY=0.5;exitDx=0;exitDy=0;entryX=0;entryY=0.5;entryDx=0;entryDy=0;" parent="1" source="efm35DuK7ggwksIkIi30-1" target="efm35DuK7ggwksIkIi30-2" edge="1">
          <mxGeometry relative="1" as="geometry" />
        </mxCell>
        <mxCell id="efm35DuK7ggwksIkIi30-5" value="接收到上层数据&lt;br&gt;————————&lt;br&gt;发送数据报文&lt;br&gt;开始计时" style="edgeLabel;html=1;align=center;verticalAlign=middle;resizable=0;points=[];" parent="efm35DuK7ggwksIkIi30-4" vertex="1" connectable="0">
          <mxGeometry x="-0.2667" y="-1" relative="1" as="geometry">
            <mxPoint x="14" y="-1" as="offset" />
          </mxGeometry>
        </mxCell>
        <mxCell id="efm35DuK7ggwksIkIi30-1" value="等待上层调用" style="ellipse;whiteSpace=wrap;html=1;" parent="1" vertex="1">
          <mxGeometry x="535.03" y="124" width="120" height="80" as="geometry" />
        </mxCell>
        <mxCell id="efm35DuK7ggwksIkIi30-10" style="edgeStyle=orthogonalEdgeStyle;rounded=0;orthogonalLoop=1;jettySize=auto;html=1;exitX=0.5;exitY=1;exitDx=0;exitDy=0;entryX=0.5;entryY=1;entryDx=0;entryDy=0;" parent="1" source="efm35DuK7ggwksIkIi30-2" target="efm35DuK7ggwksIkIi30-1" edge="1">
          <mxGeometry relative="1" as="geometry" />
        </mxCell>
        <mxCell id="efm35DuK7ggwksIkIi30-11" value="收到对应分组ACK&lt;br&gt;————————&lt;br&gt;停止计时" style="edgeLabel;html=1;align=center;verticalAlign=middle;resizable=0;points=[];" parent="efm35DuK7ggwksIkIi30-10" vertex="1" connectable="0">
          <mxGeometry x="0.129" relative="1" as="geometry">
            <mxPoint y="6" as="offset" />
          </mxGeometry>
        </mxCell>
        <mxCell id="efm35DuK7ggwksIkIi30-2" value="等待ACK" style="ellipse;whiteSpace=wrap;html=1;" parent="1" vertex="1">
          <mxGeometry x="780" y="124" width="120" height="80" as="geometry" />
        </mxCell>
        <mxCell id="efm35DuK7ggwksIkIi30-3" value="" style="endArrow=classic;html=1;rounded=0;" parent="1" edge="1">
          <mxGeometry width="50" height="50" relative="1" as="geometry">
            <mxPoint x="1020" y="670" as="sourcePoint" />
            <mxPoint x="1070" y="620" as="targetPoint" />
          </mxGeometry>
        </mxCell>
        <mxCell id="efm35DuK7ggwksIkIi30-6" value="" style="curved=1;endArrow=classic;html=1;rounded=0;" parent="1" edge="1">
          <mxGeometry width="50" height="50" relative="1" as="geometry">
            <mxPoint x="1020" y="650" as="sourcePoint" />
            <mxPoint x="1070" y="600" as="targetPoint" />
            <Array as="points">
              <mxPoint x="1070" y="650" />
              <mxPoint x="1020" y="600" />
            </Array>
          </mxGeometry>
        </mxCell>
        <mxCell id="efm35DuK7ggwksIkIi30-7" style="edgeStyle=orthogonalEdgeStyle;rounded=0;orthogonalLoop=1;jettySize=auto;html=1;exitX=0.5;exitY=0;exitDx=0;exitDy=0;entryX=1;entryY=0.5;entryDx=0;entryDy=0;" parent="1" source="efm35DuK7ggwksIkIi30-2" target="efm35DuK7ggwksIkIi30-2" edge="1">
          <mxGeometry relative="1" as="geometry">
            <mxPoint x="1025.03" y="134" as="targetPoint" />
            <Array as="points">
              <mxPoint x="865" y="124" />
              <mxPoint x="865" y="104" />
              <mxPoint x="1000" y="104" />
              <mxPoint x="1000" y="164" />
            </Array>
          </mxGeometry>
        </mxCell>
        <mxCell id="efm35DuK7ggwksIkIi30-8" value="等待ACK超时&lt;br&gt;——————————&lt;br&gt;重发未收到ACK的分组&lt;br&gt;重新开始计时" style="edgeLabel;html=1;align=center;verticalAlign=middle;resizable=0;points=[];" parent="efm35DuK7ggwksIkIi30-7" vertex="1" connectable="0">
          <mxGeometry x="-0.1667" y="4" relative="1" as="geometry">
            <mxPoint x="-33" y="-10" as="offset" />
          </mxGeometry>
        </mxCell>
        <mxCell id="efm35DuK7ggwksIkIi30-9" value="" style="curved=1;endArrow=classic;html=1;rounded=0;" parent="1" edge="1">
          <mxGeometry width="50" height="50" relative="1" as="geometry">
            <mxPoint x="1020" y="620" as="sourcePoint" />
            <mxPoint x="1070" y="570" as="targetPoint" />
            <Array as="points">
              <mxPoint x="1070" y="620" />
              <mxPoint x="1020" y="570" />
            </Array>
          </mxGeometry>
        </mxCell>
        <mxCell id="efm35DuK7ggwksIkIi30-12" value="等待来自下层接收的数据" style="ellipse;whiteSpace=wrap;html=1;" parent="1" vertex="1">
          <mxGeometry x="1100" y="190" width="120" height="80" as="geometry" />
        </mxCell>
        <mxCell id="efm35DuK7ggwksIkIi30-13" value="" style="curved=1;endArrow=classic;html=1;rounded=0;" parent="1" edge="1">
          <mxGeometry width="50" height="50" relative="1" as="geometry">
            <mxPoint x="1020" y="600" as="sourcePoint" />
            <mxPoint x="1070" y="550" as="targetPoint" />
            <Array as="points">
              <mxPoint x="1070" y="600" />
              <mxPoint x="1020" y="550" />
            </Array>
          </mxGeometry>
        </mxCell>
        <mxCell id="efm35DuK7ggwksIkIi30-14" style="edgeStyle=orthogonalEdgeStyle;rounded=0;orthogonalLoop=1;jettySize=auto;html=1;exitX=0;exitY=0.5;exitDx=0;exitDy=0;entryX=1;entryY=0.5;entryDx=0;entryDy=0;" parent="1" source="efm35DuK7ggwksIkIi30-12" target="efm35DuK7ggwksIkIi30-12" edge="1">
          <mxGeometry relative="1" as="geometry">
            <Array as="points">
              <mxPoint x="1080" y="230" />
              <mxPoint x="1080" y="160" />
              <mxPoint x="1240" y="160" />
              <mxPoint x="1240" y="230" />
            </Array>
          </mxGeometry>
        </mxCell>
        <mxCell id="efm35DuK7ggwksIkIi30-16" value="接收到受损分组&lt;br&gt;————————&lt;br&gt;丢弃该数据包" style="edgeLabel;html=1;align=center;verticalAlign=middle;resizable=0;points=[];" parent="efm35DuK7ggwksIkIi30-14" vertex="1" connectable="0">
          <mxGeometry x="-0.0875" y="2" relative="1" as="geometry">
            <mxPoint x="14" y="2" as="offset" />
          </mxGeometry>
        </mxCell>
        <mxCell id="efm35DuK7ggwksIkIi30-18" style="edgeStyle=orthogonalEdgeStyle;rounded=0;orthogonalLoop=1;jettySize=auto;html=1;exitX=0;exitY=0.5;exitDx=0;exitDy=0;entryX=1;entryY=0.5;entryDx=0;entryDy=0;" parent="1" source="efm35DuK7ggwksIkIi30-12" target="efm35DuK7ggwksIkIi30-12" edge="1">
          <mxGeometry relative="1" as="geometry">
            <Array as="points">
              <mxPoint x="1080" y="230" />
              <mxPoint x="1080" y="300" />
              <mxPoint x="1240" y="300" />
              <mxPoint x="1240" y="230" />
            </Array>
          </mxGeometry>
        </mxCell>
        <mxCell id="efm35DuK7ggwksIkIi30-19" value="收到正确分组&lt;br&gt;————————&lt;br&gt;回复ACK" style="edgeLabel;html=1;align=center;verticalAlign=middle;resizable=0;points=[];" parent="efm35DuK7ggwksIkIi30-18" vertex="1" connectable="0">
          <mxGeometry x="0.0408" y="-1" relative="1" as="geometry">
            <mxPoint x="-7" as="offset" />
          </mxGeometry>
        </mxCell>
        <mxCell id="JEM2ckdDD1PMBaPfXQAy-1" value="&lt;font style=&quot;font-size: 31px;&quot;&gt;CAPWAP有限状态机&lt;/font&gt;" style="text;html=1;align=center;verticalAlign=middle;resizable=0;points=[];autosize=1;strokeColor=none;fillColor=none;" parent="1" vertex="1">
          <mxGeometry x="1865" y="115" width="310" height="50" as="geometry" />
        </mxCell>
        <mxCell id="JEM2ckdDD1PMBaPfXQAy-2" value="&lt;font style=&quot;font-size: 24px;&quot;&gt;WTP&lt;br&gt;空闲状态&lt;br&gt;&lt;/font&gt;" style="ellipse;whiteSpace=wrap;html=1;" parent="1" vertex="1">
          <mxGeometry x="1980" y="410" width="220" height="110" as="geometry" />
        </mxCell>
        <mxCell id="JEM2ckdDD1PMBaPfXQAy-3" value="&lt;font style=&quot;font-size: 20px;&quot;&gt;发现间隔计时器&lt;br&gt;————————&lt;br&gt;发现计数计器归零&lt;br&gt;并清理以前的发现信息&lt;br&gt;&lt;/font&gt;" style="edgeLabel;html=1;align=center;verticalAlign=middle;resizable=0;points=[];" parent="1" vertex="1" connectable="0">
          <mxGeometry x="2300" y="465" as="geometry" />
        </mxCell>
        <mxCell id="JEM2ckdDD1PMBaPfXQAy-5" value="&lt;font style=&quot;font-size: 24px;&quot;&gt;WTP&lt;br&gt;发现状态&lt;br&gt;&lt;/font&gt;" style="ellipse;whiteSpace=wrap;html=1;" parent="1" vertex="1">
          <mxGeometry x="2400" y="410" width="220" height="110" as="geometry" />
        </mxCell>
        <mxCell id="JEM2ckdDD1PMBaPfXQAy-6" value="&lt;font style=&quot;font-size: 24px;&quot;&gt;AC&lt;br&gt;空闲状态&lt;br&gt;&lt;/font&gt;" style="ellipse;whiteSpace=wrap;html=1;" parent="1" vertex="1">
          <mxGeometry x="1730" y="1210" width="220" height="110" as="geometry" />
        </mxCell>
        <mxCell id="JEM2ckdDD1PMBaPfXQAy-8" value="&lt;font style=&quot;font-size: 20px;&quot;&gt;收到一个请求报文&lt;br style=&quot;border-color: var(--border-color);&quot;&gt;————————&lt;br style=&quot;border-color: var(--border-color);&quot;&gt;给请求报文一个响应&lt;br&gt;&lt;/font&gt;" style="edgeLabel;html=1;align=center;verticalAlign=middle;resizable=0;points=[];" parent="1" vertex="1" connectable="0">
          <mxGeometry x="2040" y="1265" as="geometry" />
        </mxCell>
        <mxCell id="JEM2ckdDD1PMBaPfXQAy-9" value="&lt;font style=&quot;font-size: 24px;&quot;&gt;AC&lt;br&gt;发现响应状态&lt;br&gt;&lt;/font&gt;" style="ellipse;whiteSpace=wrap;html=1;" parent="1" vertex="1">
          <mxGeometry x="2130" y="1210" width="220" height="110" as="geometry" />
        </mxCell>
        <mxCell id="JEM2ckdDD1PMBaPfXQAy-10" value="&lt;font style=&quot;font-size: 24px;&quot;&gt;WTP&lt;br&gt;事件状态&lt;br&gt;&lt;/font&gt;" style="ellipse;whiteSpace=wrap;html=1;" parent="1" vertex="1">
          <mxGeometry x="2410" y="600" width="220" height="110" as="geometry" />
        </mxCell>
        <mxCell id="JEM2ckdDD1PMBaPfXQAy-11" style="edgeStyle=orthogonalEdgeStyle;rounded=0;orthogonalLoop=1;jettySize=auto;html=1;exitX=0.5;exitY=0;exitDx=0;exitDy=0;entryX=0.995;entryY=0.418;entryDx=0;entryDy=0;fontSize=12;entryPerimeter=0;" parent="1" target="JEM2ckdDD1PMBaPfXQAy-10" edge="1">
          <mxGeometry relative="1" as="geometry">
            <mxPoint x="2680" y="514" as="targetPoint" />
            <Array as="points">
              <mxPoint x="2645" y="474" />
              <mxPoint x="2645" y="454" />
              <mxPoint x="2780" y="454" />
              <mxPoint x="2780" y="646" />
            </Array>
            <mxPoint x="2620" y="474" as="sourcePoint" />
          </mxGeometry>
        </mxCell>
        <mxCell id="JEM2ckdDD1PMBaPfXQAy-12" value="&lt;font style=&quot;font-size: 18px;&quot;&gt;间隔计时器触发&lt;br style=&quot;&quot;&gt;——————————&lt;br&gt;计数计器递增&lt;br&gt;等待发送响应信息&lt;br&gt;&lt;/font&gt;" style="edgeLabel;html=1;align=center;verticalAlign=middle;resizable=0;points=[];fontSize=12;" parent="JEM2ckdDD1PMBaPfXQAy-11" vertex="1" connectable="0">
          <mxGeometry x="-0.1667" y="4" relative="1" as="geometry">
            <mxPoint x="-22" y="-30" as="offset" />
          </mxGeometry>
        </mxCell>
        <mxCell id="JEM2ckdDD1PMBaPfXQAy-14" style="edgeStyle=orthogonalEdgeStyle;rounded=0;orthogonalLoop=1;jettySize=auto;html=1;exitX=0.5;exitY=1;exitDx=0;exitDy=0;" parent="1" source="JEM2ckdDD1PMBaPfXQAy-9" edge="1">
          <mxGeometry relative="1" as="geometry">
            <mxPoint x="2250" y="1390" as="sourcePoint" />
            <mxPoint x="2240" y="1480" as="targetPoint" />
            <Array as="points">
              <mxPoint x="2240" y="1420" />
              <mxPoint x="2240" y="1420" />
            </Array>
          </mxGeometry>
        </mxCell>
        <mxCell id="JEM2ckdDD1PMBaPfXQAy-15" value="&lt;font style=&quot;font-size: 20px;&quot;&gt;收到回送的响应&lt;br&gt;————————&lt;br&gt;开启交换配置计时&lt;br&gt;&lt;/font&gt;" style="edgeLabel;html=1;align=center;verticalAlign=middle;resizable=0;points=[];" parent="JEM2ckdDD1PMBaPfXQAy-14" vertex="1" connectable="0">
          <mxGeometry x="0.129" relative="1" as="geometry">
            <mxPoint y="6" as="offset" />
          </mxGeometry>
        </mxCell>
        <mxCell id="JEM2ckdDD1PMBaPfXQAy-16" value="&lt;font style=&quot;font-size: 24px;&quot;&gt;WTP&lt;br&gt;Sulking状态&lt;br&gt;&lt;/font&gt;" style="ellipse;whiteSpace=wrap;html=1;" parent="1" vertex="1">
          <mxGeometry x="2400" y="150" width="220" height="110" as="geometry" />
        </mxCell>
        <mxCell id="JEM2ckdDD1PMBaPfXQAy-17" value="" style="endArrow=classic;html=1;rounded=0;entryX=1;entryY=0.5;entryDx=0;entryDy=0;" parent="1" target="JEM2ckdDD1PMBaPfXQAy-16" edge="1">
          <mxGeometry width="50" height="50" relative="1" as="geometry">
            <mxPoint x="2760" y="410" as="sourcePoint" />
            <mxPoint x="2780" y="270" as="targetPoint" />
            <Array as="points">
              <mxPoint x="2760" y="205" />
            </Array>
          </mxGeometry>
        </mxCell>
        <mxCell id="JEM2ckdDD1PMBaPfXQAy-18" value="&lt;font style=&quot;font-size: 22px;&quot;&gt;计时器超时且计数器达到最大&lt;br&gt;开启SilentInterval timer&lt;br&gt;&lt;/font&gt;" style="text;html=1;align=center;verticalAlign=middle;resizable=0;points=[];autosize=1;strokeColor=none;fillColor=none;" parent="1" vertex="1">
          <mxGeometry x="2620" y="270" width="310" height="70" as="geometry" />
        </mxCell>
        <mxCell id="JEM2ckdDD1PMBaPfXQAy-19" value="" style="endArrow=classic;html=1;rounded=0;entryX=0.5;entryY=0;entryDx=0;entryDy=0;exitX=0;exitY=0.5;exitDx=0;exitDy=0;" parent="1" source="JEM2ckdDD1PMBaPfXQAy-16" target="JEM2ckdDD1PMBaPfXQAy-2" edge="1">
          <mxGeometry width="50" height="50" relative="1" as="geometry">
            <mxPoint x="2240" y="370" as="sourcePoint" />
            <mxPoint x="2290" y="320" as="targetPoint" />
            <Array as="points">
              <mxPoint x="2080" y="205" />
            </Array>
          </mxGeometry>
        </mxCell>
        <mxCell id="JEM2ckdDD1PMBaPfXQAy-20" value="&lt;font style=&quot;font-size: 24px;&quot;&gt;FailedDTLSSessionCount, &lt;br&gt;DiscoveryCount和&lt;br&gt;FailedDTLSAuthFailCount计数器&lt;br&gt;被清零&lt;/font&gt;" style="text;html=1;align=center;verticalAlign=middle;resizable=0;points=[];autosize=1;strokeColor=none;fillColor=none;" parent="1" vertex="1">
          <mxGeometry x="2070" y="210" width="370" height="130" as="geometry" />
        </mxCell>
        <mxCell id="JEM2ckdDD1PMBaPfXQAy-21" value="&lt;font style=&quot;font-size: 24px;&quot;&gt;WTP&lt;br&gt;DTLS状态&lt;br&gt;&lt;/font&gt;" style="ellipse;whiteSpace=wrap;html=1;" parent="1" vertex="1">
          <mxGeometry x="1980" y="690" width="220" height="110" as="geometry" />
        </mxCell>
        <mxCell id="JEM2ckdDD1PMBaPfXQAy-22" value="" style="endArrow=classic;html=1;rounded=0;exitX=0.5;exitY=1;exitDx=0;exitDy=0;entryX=0.5;entryY=0;entryDx=0;entryDy=0;" parent="1" source="JEM2ckdDD1PMBaPfXQAy-2" target="JEM2ckdDD1PMBaPfXQAy-21" edge="1">
          <mxGeometry width="50" height="50" relative="1" as="geometry">
            <mxPoint x="2060" y="740" as="sourcePoint" />
            <mxPoint x="2110" y="690" as="targetPoint" />
          </mxGeometry>
        </mxCell>
        <mxCell id="JEM2ckdDD1PMBaPfXQAy-23" value="&lt;font style=&quot;font-size: 24px;&quot;&gt;&lt;span style=&quot;white-space: normal;&quot;&gt;调用DTLSstart命令&lt;br&gt;&lt;/span&gt;选定AC进行DTLS会话&lt;br&gt;并开启等待DTLS计时&lt;br&gt;开启DTLS认证&lt;br&gt;&lt;/font&gt;" style="text;html=1;align=center;verticalAlign=middle;resizable=0;points=[];autosize=1;strokeColor=none;fillColor=none;" parent="1" vertex="1">
          <mxGeometry x="1840" y="535" width="260" height="130" as="geometry" />
        </mxCell>
        <mxCell id="JEM2ckdDD1PMBaPfXQAy-25" value="&lt;font style=&quot;font-size: 24px;&quot;&gt;AC&lt;br&gt;DTLS状态&lt;br&gt;&lt;/font&gt;" style="ellipse;whiteSpace=wrap;html=1;" parent="1" vertex="1">
          <mxGeometry x="1720" y="950" width="220" height="110" as="geometry" />
        </mxCell>
        <mxCell id="JEM2ckdDD1PMBaPfXQAy-26" value="" style="endArrow=classic;html=1;rounded=0;entryX=0.5;entryY=1;entryDx=0;entryDy=0;" parent="1" target="JEM2ckdDD1PMBaPfXQAy-25" edge="1">
          <mxGeometry width="50" height="50" relative="1" as="geometry">
            <mxPoint x="1840" y="1210" as="sourcePoint" />
            <mxPoint x="1890" y="1160" as="targetPoint" />
          </mxGeometry>
        </mxCell>
        <mxCell id="JEM2ckdDD1PMBaPfXQAy-27" value="&lt;font style=&quot;font-size: 24px;&quot;&gt;&lt;span style=&quot;white-space: normal;&quot;&gt;监听线程开启&lt;br&gt;&lt;/span&gt;开启DTLS计时&lt;/font&gt;" style="text;html=1;align=center;verticalAlign=middle;resizable=0;points=[];autosize=1;strokeColor=none;fillColor=none;" parent="1" vertex="1">
          <mxGeometry x="1670" y="1095" width="180" height="70" as="geometry" />
        </mxCell>
        <mxCell id="JEM2ckdDD1PMBaPfXQAy-30" value="&lt;font style=&quot;font-size: 24px;&quot;&gt;DTLS连接超时&lt;/font&gt;" style="text;html=1;align=center;verticalAlign=middle;resizable=0;points=[];autosize=1;strokeColor=none;fillColor=none;" parent="1" vertex="1">
          <mxGeometry x="1685" y="330" width="180" height="40" as="geometry" />
        </mxCell>
        <mxCell id="JEM2ckdDD1PMBaPfXQAy-31" value="" style="curved=1;endArrow=classic;html=1;rounded=0;entryX=0;entryY=0.5;entryDx=0;entryDy=0;" parent="1" target="JEM2ckdDD1PMBaPfXQAy-2" edge="1">
          <mxGeometry width="50" height="50" relative="1" as="geometry">
            <mxPoint x="2090" y="520" as="sourcePoint" />
            <mxPoint x="1970" y="460" as="targetPoint" />
            <Array as="points">
              <mxPoint x="1990" y="530" />
              <mxPoint x="1960" y="520" />
              <mxPoint x="1840" y="480" />
              <mxPoint x="1680" y="480" />
              <mxPoint x="1590" y="250" />
              <mxPoint x="2030" y="270" />
            </Array>
          </mxGeometry>
        </mxCell>
        <mxCell id="JEM2ckdDD1PMBaPfXQAy-33" value="" style="curved=1;endArrow=classic;html=1;rounded=0;exitX=0.5;exitY=0;exitDx=0;exitDy=0;entryX=0;entryY=0.5;entryDx=0;entryDy=0;" parent="1" source="JEM2ckdDD1PMBaPfXQAy-6" target="JEM2ckdDD1PMBaPfXQAy-6" edge="1">
          <mxGeometry width="50" height="50" relative="1" as="geometry">
            <mxPoint x="1880" y="920" as="sourcePoint" />
            <mxPoint x="1930" y="870" as="targetPoint" />
            <Array as="points">
              <mxPoint x="1730" y="1180" />
              <mxPoint x="1680" y="1180" />
              <mxPoint x="1510" y="1140" />
              <mxPoint x="1590" y="1450" />
            </Array>
          </mxGeometry>
        </mxCell>
        <mxCell id="JEM2ckdDD1PMBaPfXQAy-34" value="&lt;font style=&quot;font-size: 22px;&quot;&gt;DTLS连接失败&lt;/font&gt;" style="text;html=1;align=center;verticalAlign=middle;resizable=0;points=[];autosize=1;strokeColor=none;fillColor=none;" parent="1" vertex="1">
          <mxGeometry x="1550" y="1245" width="170" height="40" as="geometry" />
        </mxCell>
        <mxCell id="Yf-jkqj4sTPyt8U-182C-1" value="&lt;font style=&quot;font-size: 24px;&quot;&gt;AC&lt;br&gt;授权状态&lt;br&gt;&lt;/font&gt;" style="ellipse;whiteSpace=wrap;html=1;" vertex="1" parent="1">
          <mxGeometry x="2145" y="970" width="220" height="110" as="geometry" />
        </mxCell>
        <mxCell id="Yf-jkqj4sTPyt8U-182C-2" value="&lt;font style=&quot;font-size: 24px;&quot;&gt;&amp;nbsp; &amp;nbsp;DTLS模块初始化&lt;br&gt;DTLSPeerAuthorize通告&lt;br style=&quot;border-color: var(--border-color); color: rgb(0, 0, 0); font-family: Helvetica; font-style: normal; font-variant-ligatures: normal; font-variant-caps: normal; font-weight: 400; letter-spacing: normal; orphans: 2; text-align: center; text-indent: 0px; text-transform: none; widows: 2; word-spacing: 0px; -webkit-text-stroke-width: 0px; background-color: rgb(255, 255, 255); text-decoration-thickness: initial; text-decoration-style: initial; text-decoration-color: initial;&quot;&gt;&lt;span style=&quot;color: rgb(0, 0, 0); font-family: Helvetica; font-style: normal; font-variant-ligatures: normal; font-variant-caps: normal; font-weight: 400; letter-spacing: normal; orphans: 2; text-align: center; text-indent: 0px; text-transform: none; widows: 2; word-spacing: 0px; -webkit-text-stroke-width: 0px; background-color: rgb(255, 255, 255); text-decoration-thickness: initial; text-decoration-style: initial; text-decoration-color: initial; float: none; display: inline !important;&quot;&gt;————————&lt;/span&gt;&lt;br style=&quot;border-color: var(--border-color); color: rgb(0, 0, 0); font-family: Helvetica; font-style: normal; font-variant-ligatures: normal; font-variant-caps: normal; font-weight: 400; letter-spacing: normal; orphans: 2; text-align: center; text-indent: 0px; text-transform: none; widows: 2; word-spacing: 0px; -webkit-text-stroke-width: 0px; background-color: rgb(255, 255, 255); text-decoration-thickness: initial; text-decoration-style: initial; text-decoration-color: initial;&quot;&gt;&lt;span style=&quot;color:red&quot;&gt;监听线程&lt;/span&gt;&lt;span style=&quot;color:red&quot;&gt;fork&lt;/span&gt;&lt;span style=&quot;color:red&quot;&gt;一个服务线程&lt;br&gt;&lt;/span&gt;服务线程会对WTP证书执行认证&lt;br&gt;&lt;/font&gt;" style="text;whiteSpace=wrap;html=1;" vertex="1" parent="1">
          <mxGeometry x="1940" y="920" width="210" height="100" as="geometry" />
        </mxCell>
        <mxCell id="Yf-jkqj4sTPyt8U-182C-3" value="&lt;font style=&quot;font-size: 24px;&quot;&gt;AC&lt;br&gt;配置响应状态&lt;br&gt;&lt;/font&gt;" style="ellipse;whiteSpace=wrap;html=1;" vertex="1" parent="1">
          <mxGeometry x="2130" y="1480" width="220" height="110" as="geometry" />
        </mxCell>
        <mxCell id="Yf-jkqj4sTPyt8U-182C-4" value="" style="curved=1;endArrow=classic;html=1;rounded=0;exitX=1;exitY=0.609;exitDx=0;exitDy=0;exitPerimeter=0;entryX=1;entryY=0;entryDx=0;entryDy=0;" edge="1" parent="1" source="Yf-jkqj4sTPyt8U-182C-3" target="Yf-jkqj4sTPyt8U-182C-3">
          <mxGeometry width="50" height="50" relative="1" as="geometry">
            <mxPoint x="2300" y="1320" as="sourcePoint" />
            <mxPoint x="2350" y="1270" as="targetPoint" />
            <Array as="points">
              <mxPoint x="2560" y="1570" />
              <mxPoint x="2550" y="1360" />
              <mxPoint x="2390" y="1370" />
            </Array>
          </mxGeometry>
        </mxCell>
        <mxCell id="Yf-jkqj4sTPyt8U-182C-5" value="&lt;font style=&quot;font-size: 24px;&quot;&gt;配置超时&lt;br&gt;重新响应&lt;br&gt;重新计时&lt;br&gt;&lt;/font&gt;" style="text;html=1;align=center;verticalAlign=middle;resizable=0;points=[];autosize=1;strokeColor=none;fillColor=none;" vertex="1" parent="1">
          <mxGeometry x="2420" y="1380" width="120" height="100" as="geometry" />
        </mxCell>
        <mxCell id="Yf-jkqj4sTPyt8U-182C-6" value="&lt;font style=&quot;font-size: 24px;&quot;&gt;AC&lt;br&gt;确认配置状态&lt;br&gt;&lt;/font&gt;" style="ellipse;whiteSpace=wrap;html=1;" vertex="1" parent="1">
          <mxGeometry x="1660" y="1440" width="220" height="110" as="geometry" />
        </mxCell>
        <mxCell id="Yf-jkqj4sTPyt8U-182C-7" value="" style="curved=1;endArrow=classic;html=1;rounded=0;exitX=0.5;exitY=0;exitDx=0;exitDy=0;entryX=0.5;entryY=0;entryDx=0;entryDy=0;" edge="1" parent="1" source="Yf-jkqj4sTPyt8U-182C-1" target="JEM2ckdDD1PMBaPfXQAy-25">
          <mxGeometry width="50" height="50" relative="1" as="geometry">
            <mxPoint x="1990" y="1290" as="sourcePoint" />
            <mxPoint x="2040" y="1240" as="targetPoint" />
            <Array as="points">
              <mxPoint x="2210" y="890" />
              <mxPoint x="2010" y="840" />
              <mxPoint x="1890" y="880" />
            </Array>
          </mxGeometry>
        </mxCell>
        <mxCell id="Yf-jkqj4sTPyt8U-182C-8" value="&lt;font style=&quot;font-size: 24px;&quot;&gt;授权初始化失败&lt;/font&gt;" style="text;html=1;align=center;verticalAlign=middle;resizable=0;points=[];autosize=1;strokeColor=none;fillColor=none;" vertex="1" parent="1">
          <mxGeometry x="1925" y="870" width="190" height="40" as="geometry" />
        </mxCell>
        <mxCell id="Yf-jkqj4sTPyt8U-182C-9" value="" style="endArrow=classic;html=1;rounded=0;exitX=0;exitY=0.5;exitDx=0;exitDy=0;entryX=1;entryY=0.5;entryDx=0;entryDy=0;" edge="1" parent="1" source="Yf-jkqj4sTPyt8U-182C-3" target="Yf-jkqj4sTPyt8U-182C-6">
          <mxGeometry width="50" height="50" relative="1" as="geometry">
            <mxPoint x="1890" y="1280" as="sourcePoint" />
            <mxPoint x="1940" y="1230" as="targetPoint" />
          </mxGeometry>
        </mxCell>
        <mxCell id="Yf-jkqj4sTPyt8U-182C-10" value="&lt;span style=&quot;font-size: 24px;&quot;&gt;收到WTP的回送响应&lt;/span&gt;" style="text;html=1;align=center;verticalAlign=middle;resizable=0;points=[];autosize=1;strokeColor=none;fillColor=none;" vertex="1" parent="1">
          <mxGeometry x="1890" y="1460" width="240" height="40" as="geometry" />
        </mxCell>
        <mxCell id="Yf-jkqj4sTPyt8U-182C-11" value="&lt;span style=&quot;font-size: 23px;&quot;&gt;开启数据检查&lt;/span&gt;" style="text;html=1;align=center;verticalAlign=middle;resizable=0;points=[];autosize=1;strokeColor=none;fillColor=none;" vertex="1" parent="1">
          <mxGeometry x="1910" y="1530" width="160" height="40" as="geometry" />
        </mxCell>
        <mxCell id="Yf-jkqj4sTPyt8U-182C-12" value="" style="endArrow=classic;html=1;rounded=0;entryX=1;entryY=0;entryDx=0;entryDy=0;exitX=0.5;exitY=1;exitDx=0;exitDy=0;" edge="1" parent="1" source="Yf-jkqj4sTPyt8U-182C-1" target="JEM2ckdDD1PMBaPfXQAy-6">
          <mxGeometry width="50" height="50" relative="1" as="geometry">
            <mxPoint x="1890" y="1270" as="sourcePoint" />
            <mxPoint x="1940" y="1220" as="targetPoint" />
          </mxGeometry>
        </mxCell>
        <mxCell id="Yf-jkqj4sTPyt8U-182C-13" value="&lt;font style=&quot;font-size: 24px;&quot;&gt;关闭DTLS会话&lt;/font&gt;" style="text;html=1;align=center;verticalAlign=middle;resizable=0;points=[];autosize=1;strokeColor=none;fillColor=none;" vertex="1" parent="1">
          <mxGeometry x="2130" y="1125" width="180" height="40" as="geometry" />
        </mxCell>
        <mxCell id="Yf-jkqj4sTPyt8U-182C-14" value="" style="curved=1;endArrow=classic;html=1;rounded=0;exitX=0;exitY=0.5;exitDx=0;exitDy=0;entryX=-0.009;entryY=0.573;entryDx=0;entryDy=0;entryPerimeter=0;" edge="1" parent="1" source="Yf-jkqj4sTPyt8U-182C-6" target="JEM2ckdDD1PMBaPfXQAy-25">
          <mxGeometry width="50" height="50" relative="1" as="geometry">
            <mxPoint x="1580" y="1260" as="sourcePoint" />
            <mxPoint x="1630" y="1210" as="targetPoint" />
            <Array as="points">
              <mxPoint x="1470" y="1520" />
              <mxPoint x="1410" y="1460" />
              <mxPoint x="1360" y="1350" />
              <mxPoint x="1510" y="1140" />
            </Array>
          </mxGeometry>
        </mxCell>
        <mxCell id="Yf-jkqj4sTPyt8U-182C-15" value="&lt;font style=&quot;font-size: 24px;&quot;&gt;接收到DTLS通告&lt;br&gt;计时器开始触发&lt;br&gt;&lt;/font&gt;" style="text;html=1;align=center;verticalAlign=middle;resizable=0;points=[];autosize=1;strokeColor=none;fillColor=none;" vertex="1" parent="1">
          <mxGeometry x="1420" y="1410" width="200" height="70" as="geometry" />
        </mxCell>
        <mxCell id="Yf-jkqj4sTPyt8U-182C-16" value="" style="curved=1;endArrow=classic;html=1;rounded=0;exitX=1;exitY=1;exitDx=0;exitDy=0;entryX=0;entryY=1;entryDx=0;entryDy=0;" edge="1" parent="1" source="Yf-jkqj4sTPyt8U-182C-6" target="Yf-jkqj4sTPyt8U-182C-6">
          <mxGeometry width="50" height="50" relative="1" as="geometry">
            <mxPoint x="1790" y="1660" as="sourcePoint" />
            <mxPoint x="1840" y="1610" as="targetPoint" />
            <Array as="points">
              <mxPoint x="1860" y="1610" />
              <mxPoint x="1840" y="1660" />
              <mxPoint x="1710" y="1660" />
              <mxPoint x="1680" y="1610" />
            </Array>
          </mxGeometry>
        </mxCell>
        <mxCell id="Yf-jkqj4sTPyt8U-182C-17" value="&lt;font style=&quot;font-size: 24px;&quot;&gt;DTLS连接失败&lt;/font&gt;" style="text;html=1;align=center;verticalAlign=middle;resizable=0;points=[];autosize=1;strokeColor=none;fillColor=none;" vertex="1" parent="1">
          <mxGeometry x="1680" y="1590" width="180" height="40" as="geometry" />
        </mxCell>
      </root>
    </mxGraphModel>
  </diagram>
</mxfile>
